<svg xmlns="http://www.w3.org/2000/svg" width="568.072" height="670.62" viewBox="0 0 568.072 670.62">
  <g id="Illustration" transform="translate(0.019 36)">
    <rect id="Rectangle_374" data-name="Rectangle 374" width="567.991" height="508.282" transform="translate(0 -36)" fill="#eaebf3"/>
    <path id="Path_118" data-name="Path 118" d="M358.831,2461.551c-17.106-2.2-36.039-14.112-42.354-54.45-11.849-40.337,23.7-38.824,26.471,6.051.644,10.438.5-38.564,15.882-38.694s10.841,39.2,10.841,45.309c0,1.909,20.672-17.707,13.614,10.783-.455,1.837,24.681-4.792,1.55,20.112C380.038,2455.819,371.671,2463.206,358.831,2461.551Z" transform="translate(-260.163 -2079.894)" fill="#14594a"/>
    <path id="Path_119" data-name="Path 119" d="M400.718,2487.787c-15.093-8.9-38.826-80.348-39.828-83.384l.764-.253c.245.741,24.64,74.2,39.473,82.939Z" transform="translate(-300.752 -2105.633)" fill="#fff"/>
    <path id="Path_120" data-name="Path 120" d="M641.952,2461.812c-7.8-11.842-3.529-84.494-3.343-87.582l.8.049c-.045.754-4.441,75.471,3.211,87.089Z" transform="translate(-540.343 -2079.697)" fill="#fff"/>
    <path id="Path_121" data-name="Path 121" d="M672.529,2726.9h-.037a1.41,1.41,0,0,1-1.245-.744c-2.906-5.217,17.972-42.053,20.369-46.236l.7.4c-6.433,11.257-22.632,41.367-20.361,45.445a.611.611,0,0,0,.57.33h.027c3.062,0,18.852-17.778,28.747-29.766l.622.512C699.37,2699.925,676.976,2726.9,672.529,2726.9Z" transform="translate(-569.552 -2344.69)" fill="#fff"/>
    <path id="Path_122" data-name="Path 122" d="M414.386,2772.746c-9.808-.255-35.545,6.3-36.808-13.613-.22-3.462,5.223-6.741,13.361-3.782,2.773,1.008-7.563-17.647,11.345-18.655,8.824-.252,5.906,14.437,9.075,14.437,2.521,0-.756-22.757,17.648-15.777,13.9,5.273-1.373,26.389,1.889,25.859C437.45,2760.151,453.462,2773.764,414.386,2772.746Z" transform="translate(-315.213 -2391.594)" fill="#aabd95"/>
    <path id="Path_123" data-name="Path 123" d="M411.836,2934.258c-5.317-.046-34.229-13.1-35.456-13.656l.331-.732c.3.133,29.983,13.539,35.131,13.579Z" transform="translate(-314.18 -2552.696)" fill="#029f7c"/>
    <path id="Path_124" data-name="Path 124" d="M552.56,2792.669c-14.1-10.829-15.3-35.745-15.31-36l.8-.033c.011.247,1.2,24.792,15,35.39Z" transform="translate(-453.634 -2411.197)" fill="#029f7c"/>
    <path id="Path_125" data-name="Path 125" d="M665.76,2781.156l-.581-.557c5.9-6.148,12.686-36.887,12.755-37.2l.787.173C678.441,2744.843,671.812,2774.84,665.76,2781.156Z" transform="translate(-564.532 -2399.72)" fill="#029f7c"/>
    <path id="Path_126" data-name="Path 126" d="M683.732,2962.953l-.242-.767c9.416-2.975,19.089-9.127,19.187-9.186l.434.677C703.013,2953.737,693.252,2959.947,683.732,2962.953Z" transform="translate(-580.405 -2581.416)" fill="#029f7c"/>
    <path id="Path_127" data-name="Path 127" d="M0,2795.726l568.05-11.265-.395,263.9-567.678,0Z" transform="translate(0 -2413.735)" fill="#515a9a"/>
    <path id="Path_128" data-name="Path 128" d="M3082.183,2616.893c-9.515-14.532,81.829-66.6,91.69-56.743C3185.459,2571.736,3089.637,2628.276,3082.183,2616.893Z" transform="translate(-2659.161 -2239.796)" fill="#aabd95"/>
    <path id="Path_129" data-name="Path 129" d="M3085.535,2622.876l-.425-.684c.533-.328,52.892-32.868,78.127-48.446,13.193-8.145,13.49-8.271,13.617-8.326l.318.74c-.224.106-2.753,1.63-13.511,8.271C3138.426,2590.006,3086.061,2622.546,3085.535,2622.876Z" transform="translate(-2662.3 -2245.434)" fill="#029f7c"/>
    <rect id="Rectangle_375" data-name="Rectangle 375" width="0.804" height="9.591" transform="translate(500.983 328.998) rotate(-69.42)" fill="#029f7c"/>
    <rect id="Rectangle_376" data-name="Rectangle 376" width="12.796" height="0.804" transform="translate(492.351 333.655) rotate(-67.6)" fill="#029f7c"/>
    <rect id="Rectangle_377" data-name="Rectangle 377" width="0.805" height="13.024" transform="translate(482.349 340.505) rotate(-67.84)" fill="#029f7c"/>
    <path id="Path_130" data-name="Path 130" d="M3212.266,2482.2l-.776-.216,3.976-14.367.776.215Z" transform="translate(-2733.947 -2139.076)" fill="#029f7c"/>
    <rect id="Rectangle_378" data-name="Rectangle 378" width="0.805" height="17.818" transform="translate(457.84 355.852) rotate(-83.07)" fill="#029f7c"/>
    <rect id="Rectangle_379" data-name="Rectangle 379" width="15.841" height="0.805" transform="translate(462.952 352.014) rotate(-77.59)" fill="#029f7c"/>
    <rect id="Rectangle_380" data-name="Rectangle 380" width="0.805" height="12.941" transform="translate(443.376 364.789) rotate(-71.37)" fill="#029f7c"/>
    <path id="Path_131" data-name="Path 131" d="M3266.637,2773.905l-.425-.685.212.342-.3-.259c.418-.666,3.079-10.364,4.66-16.324l.779.206C3267.228,2773.54,3266.8,2773.8,3266.637,2773.905Z" transform="translate(-2819.212 -2411.491)" fill="#fff"/>
    <path id="Path_132" data-name="Path 132" d="M3044.1,2043.716c-42.126-19.491,63.823-156.662,88.168-150.169C3146.763,1897.407,3073.088,2057.127,3044.1,2043.716Z" transform="translate(-2618.262 -1662.813)" fill="#0e5545"/>
    <path id="Path_133" data-name="Path 133" d="M3085.266,2042.563a.507.507,0,0,1-.266-.072l.416-.691a.267.267,0,0,0-.216-.033c3.887-1.6,66.764-107.582,90.661-148.287l.7.407c-8.864,15.1-86.73,147.534-91.148,148.656A.578.578,0,0,1,3085.266,2042.563Z" transform="translate(-2662.204 -1662.948)" fill="#fff"/>
    <rect id="Rectangle_381" data-name="Rectangle 381" width="13.075" height="0.805" transform="matrix(0.923, -0.384, 0.384, 0.923, 501.784, 250.834)" fill="#fff"/>
    <rect id="Rectangle_382" data-name="Rectangle 382" width="0.804" height="12.698" transform="matrix(0.991, -0.133, 0.133, 0.991, 502.099, 234.874)" fill="#fff"/>
    <rect id="Rectangle_383" data-name="Rectangle 383" width="25.315" height="0.805" transform="translate(491.581 267.971) rotate(-88.66)" fill="#fff"/>
    <rect id="Rectangle_384" data-name="Rectangle 384" width="21.769" height="0.805" transform="matrix(0.933, -0.359, 0.359, 0.933, 482.883, 282.736)" fill="#fff"/>
    <rect id="Rectangle_385" data-name="Rectangle 385" width="0.804" height="32.116" transform="translate(476.956 258.078) rotate(-2.61)" fill="#fff"/>
    <rect id="Rectangle_386" data-name="Rectangle 386" width="28.054" height="0.805" transform="matrix(0.938, -0.345, 0.345, 0.938, 460.924, 319.375)" fill="#fff"/>
    <rect id="Rectangle_387" data-name="Rectangle 387" width="24.014" height="0.805" transform="matrix(0.99, -0.139, 0.139, 0.99, 446.937, 342.468)" fill="#fff"/>
    <path id="Path_134" data-name="Path 134" d="M2955.94,2310.666l-10.63-28.959.757-.277,10.629,28.959Z" transform="translate(-2503.203 -1977.673)" fill="#fff"/>
    <rect id="Rectangle_388" data-name="Rectangle 388" width="0.805" height="30.574" transform="translate(460.568 277.844) rotate(-14.3)" fill="#fff"/>
    <path id="Path_135" data-name="Path 135" d="M3015.682,1844.046c-39.923-22.717,9.348-193.171,33.282-180.885C3088.687,1683.547,3037.69,1856.572,3015.682,1844.046Z" transform="translate(-2589.037 -1462.743)" fill="#aabd95"/>
    <path id="Path_136" data-name="Path 136" d="M3111.688,1846.223l-.8-.133c.149-.9,15.1-90.838,24.963-143.257,6.882-36.571,8.028-37.517,8.459-37.872l.513.622c-.521.5-2.279,6.039-8.181,37.4C3126.786,1755.393,3111.836,1845.321,3111.688,1846.223Z" transform="translate(-2684.647 -1464.851)" fill="#029f7c"/>
    <rect id="Rectangle_389" data-name="Rectangle 389" width="27.208" height="0.805" transform="matrix(0.744, -0.668, 0.668, 0.744, 451.553, 236.581)" fill="#029f7c"/>
    <rect id="Rectangle_390" data-name="Rectangle 390" width="0.805" height="23.183" transform="matrix(0.894, -0.447, 0.447, 0.894, 441.23, 215.624)" fill="#029f7c"/>
    <rect id="Rectangle_391" data-name="Rectangle 391" width="32.76" height="0.804" transform="matrix(0.8, -0.6, 0.6, 0.8, 442.835, 285.489)" fill="#029f7c"/>
    <rect id="Rectangle_392" data-name="Rectangle 392" width="0.805" height="33.551" transform="translate(424.963 266.27) rotate(-28.35)" fill="#029f7c"/>
    <rect id="Rectangle_393" data-name="Rectangle 393" width="29.133" height="0.809" transform="matrix(0.856, -0.517, 0.517, 0.856, 442.085, 304.18)" fill="#029f7c"/>
    <rect id="Rectangle_394" data-name="Rectangle 394" width="0.805" height="38.637" transform="translate(415.877 294.322) rotate(-30.34)" fill="#029f7c"/>
    <rect id="Rectangle_395" data-name="Rectangle 395" width="31.778" height="0.805" transform="matrix(0.809, -0.588, 0.588, 0.809, 433.991, 335.971)" fill="#029f7c"/>
    <rect id="Rectangle_396" data-name="Rectangle 396" width="27.583" height="0.805" transform="translate(430.477 356.754) rotate(-35.06)" fill="#029f7c"/>
    <rect id="Rectangle_397" data-name="Rectangle 397" width="0.804" height="28.137" transform="translate(432.928 238.869) rotate(-29.15)" fill="#029f7c"/>
    <rect id="Rectangle_398" data-name="Rectangle 398" width="28.214" height="0.805" transform="matrix(0.746, -0.666, 0.666, 0.746, 448.585, 252.744)" fill="#029f7c"/>
    <path id="Path_137" data-name="Path 137" d="M2918.887,2473.8s-42.114-34.269-26.424-84.639C2892.462,2389.16,2931.272,2410.628,2918.887,2473.8Z" transform="translate(-2492.263 -2092.639)" fill="#0e5545"/>
    <path id="Path_138" data-name="Path 138" d="M2939.81,2477.57c-12.007-38.167-26.309-83.753-26.27-84.176l.8.072-.4-.036.4-.059c.241,1.2,17.269,55.441,26.24,83.958Z" transform="translate(-2513.57 -2096.288)" fill="#fff"/>
    <path id="Path_139" data-name="Path 139" d="M2957.136,2476.892l-.757-.277c.317-.864,3.2-8.452,6.378-8.316l-.032.8h-.049C2960.477,2469.1,2957.935,2474.713,2957.136,2476.892Z" transform="translate(-2550.707 -2161.24)" fill="#fff"/>
    <path id="Path_140" data-name="Path 140" d="M2900.327,2581.432c-5.45-2.07-11.53-4.1-12.28-3.9l-.308-.743c1.112-.487,9.372,2.56,12.872,3.889Z" transform="translate(-2491.205 -2255.244)" fill="#fff"/>
    <path id="Path_141" data-name="Path 141" d="M3008.626,2612.359l-.686-.422c.763-1.242,7.537-12.156,10.408-12.647l.133.8C3016.582,2600.407,3011.543,2607.6,3008.626,2612.359Z" transform="translate(-2595.403 -2274.794)" fill="#fff"/>
    <path id="Path_142" data-name="Path 142" d="M2932.242,2734.259c-.115-.063-11.51-6.326-15.379-5.578l-.153-.791c4.166-.787,15.443,5.4,15.922,5.665Z" transform="translate(-2516.318 -2386.214)" fill="#fff"/>
    <path id="Path_143" data-name="Path 143" d="M3046.726,2740.856l-.666-.461c.83-1.2,8.165-11.669,10.079-12.4l.289.752C3055.166,2729.23,3049.806,2736.432,3046.726,2740.856Z" transform="translate(-2628.448 -2386.361)" fill="#fff"/>
    <path id="Path_144" data-name="Path 144" d="M2987.135,2858.042c-2.728-.9-10.177-3.1-11.873-2.438l-.292-.749c2.271-.884,11.386,2.083,12.418,2.425Z" transform="translate(-2566.822 -2496.194)" fill="#fff"/>
    <path id="Path_145" data-name="Path 145" d="M3077.792,2844.637c-.267-.852,5.552-11.183,7.09-11.687l.253.764c-1.065.354-6.413,9.536-6.562,10.783l-.242-.029Z" transform="translate(-2655.948 -2477.347)" fill="#fff"/>
    <path id="Path_146" data-name="Path 146" d="M3042.183,2941.92c-4.557-.46-7.035-.9-7.363-1.3l.626-.506a47.078,47.078,0,0,0,6.819,1.011Z" transform="translate(-2618.704 -2570.241)" fill="#fff"/>
    <path id="Path_147" data-name="Path 147" d="M1058.13,2210.7c-3.654,4.677-18.586-6.882-20.11-12.619-3.433-12.923-5.89-89.729,23.822-92.854s110.915-5.374,121.887,5.139,18.854,28.631,31.62,32.253,74.275-2.234,62.688,58.742c-.533,2.772-11.132,2.229-11.272-.59-.4-8.121,5.849-32.024-31.505-26.211-16.327,2.543-18.039,13.935-19.9,29.229-.355,2.906-95.935,2.53-106.805,0-8.743-2.037-3.277-27.124-19.458-30.179C1050.195,2166.266,1061.262,2206.692,1058.13,2210.7Z" transform="translate(-886.016 -1844.246)" fill="#c04b4b"/>
    <path id="Path_148" data-name="Path 148" d="M1438.913,2135.11c5.476,1.406,27.72,27.357,23.422,29.528-1.464.743-118.7-1.379-122.313-5.516-5.026-5.747,1.608-26.32,9.186-27.278C1364.024,2129.971,1427.934,2132.291,1438.913,2135.11Z" transform="translate(-1148.014 -1868.993)" fill="#cbcee1"/>
    <circle id="Ellipse_73" data-name="Ellipse 73" cx="19.671" cy="19.671" r="19.671" transform="translate(339.086 336.649)" fill="#231f20"/>
    <path id="Path_149" data-name="Path 149" d="M2468.048,2723.259a20.879,20.879,0,1,1,20.878-20.88A20.9,20.9,0,0,1,2468.048,2723.259Zm0-39.342a18.462,18.462,0,1,0,18.463,18.461A18.484,18.484,0,0,0,2468.048,2683.916Z" transform="translate(-2109.288 -2346.06)" fill="#231f20"/>
    <circle id="Ellipse_74" data-name="Ellipse 74" cx="11.22" cy="11.22" r="11.22" transform="translate(347.537 345.1)" fill="#fff"/>
    <path id="Path_150" data-name="Path 150" d="M2525.7,2772.051a12.026,12.026,0,1,1,12.026-12.026A12.025,12.025,0,0,1,2525.7,2772.051Zm0-22.44a10.415,10.415,0,1,0,10.415,10.415,10.415,10.415,0,0,0-10.415-10.415Z" transform="translate(-2166.934 -2403.707)" fill="#231f20"/>
    <circle id="Ellipse_75" data-name="Ellipse 75" cx="19.671" cy="19.671" r="19.671" transform="translate(174.898 339.869)" fill="#231f20"/>
    <path id="Path_151" data-name="Path 151" d="M1234.729,2747.457a20.879,20.879,0,1,1,20.879-20.879A20.9,20.9,0,0,1,1234.729,2747.457Zm0-39.342a18.463,18.463,0,1,0,18.464,18.464A18.485,18.485,0,0,0,1234.729,2708.115Z" transform="translate(-1040.159 -2367.038)" fill="#231f20"/>
    <circle id="Ellipse_76" data-name="Ellipse 76" cx="11.22" cy="11.22" r="11.22" transform="translate(183.349 348.32)" fill="#fff"/>
    <path id="Path_152" data-name="Path 152" d="M1292.376,2796.251a12.026,12.026,0,1,1,12.026-12.026A12.026,12.026,0,0,1,1292.376,2796.251Zm0-22.441a10.415,10.415,0,1,0,10.415,10.415A10.415,10.415,0,0,0,1292.376,2773.811Z" transform="translate(-1097.805 -2424.685)" fill="#231f20"/>
    <path id="Path_153" data-name="Path 153" d="M1597.37,1978.349l3.409,31.665h2.595l-4.214-31.665Z" transform="translate(-1334.714 -1714.942)" fill="#c04b4b"/>
    <path id="Path_154" data-name="Path 154" d="M1408.761,1971.34l-2.431,31.641,2.431.443,1.941-31.706Z" transform="translate(-1169.106 -1708.865)" fill="#c04b4b"/>
    <path id="Path_155" data-name="Path 155" d="M1196.81,1999.548l7.307-30.448h2.754l-8.1,30.448Z" transform="translate(-987.48 -1706.924)" fill="#c04b4b"/>
    <path id="Path_156" data-name="Path 156" d="M2216.364,2314.655c1.238-3.44,10.239,3.1,7.312,12.668-.464,1.515-6.348,1.584-6.338,0C2217.361,2323.041,2214.9,2318.708,2216.364,2314.655Z" transform="translate(-1908.807 -2027.248)" fill="#bd2e2e"/>
    <path id="Path_157" data-name="Path 157" d="M2207.086,1274.488a9.443,9.443,0,0,1-5.851-1.763,4.671,4.671,0,0,1-1.985-3.595h.8a3.884,3.884,0,0,0,1.673,2.956c2.11,1.636,5.428,2.036,9.1,1.094a6.192,6.192,0,0,0,2.286-3.554,3.264,3.264,0,0,0-1.2-2.92c-.471-.434-2-.418-3.481-.4-2.68.022-6.013.059-6.077-2.579-.1-4.033.788-6.531,2.633-7.431,3.145-1.526,7.776,2.242,7.972,2.4l-.512.622c-.044-.036-4.427-3.6-7.108-2.3-1.536.748-2.263,3-2.18,6.687.041,1.711,2.2,1.824,5.264,1.792,1.789-.019,3.329-.032,4.035.618a4.018,4.018,0,0,1,1.359,4.1,6.6,6.6,0,0,1-2.8,3.75A15.942,15.942,0,0,1,2207.086,1274.488Z" transform="translate(-1894.373 -1110.278)" fill="#231f20"/>
    <path id="Path_158" data-name="Path 158" d="M2220.109,1259.266l-.79-.158c4.772-23.767,4.926-23.767,5.368-23.767v.4l.344.2C2224.708,1236.679,2221.911,1250.294,2220.109,1259.266Z" transform="translate(-1911.771 -1092.427)" fill="#231f20"/>
    <rect id="Rectangle_399" data-name="Rectangle 399" width="24.55" height="0.805" transform="translate(311.837 167.298) rotate(-78.62)" fill="#231f20"/>
    <path id="Path_159" data-name="Path 159" d="M1792.6,1223.116s3.924,6.743-3.613,10.261c-2.375,1.109-8.264,1.065-9.412-4.618-1.323-6.539,5.151-11.449,9.146-8.88,0,0,12.838-16.793,13.409-13.319.724,4.4-2.328,4.148-3.375,5.325-.548.619.208,2.681-.355,3.286s-1.572-.21-1.51,2.929c.019.965-5.087,5.622-4.289,5.012" transform="translate(-1530.42 -1067.067)" fill="#ff815c"/>
    <circle id="Ellipse_77" data-name="Ellipse 77" cx="2.064" cy="2.064" r="2.064" transform="translate(252.809 159.245)" fill="#231f20"/>
    <path id="Path_160" data-name="Path 160" d="M1807.586,1359.891a2.465,2.465,0,1,1,2.465-2.466A2.466,2.466,0,0,1,1807.586,1359.891Zm0-4.127a1.66,1.66,0,1,0,1.66,1.66,1.66,1.66,0,0,0-1.66-1.66Z" transform="translate(-1552.713 -1196.121)"/>
    <path id="Path_161" data-name="Path 161" d="M1773.476,1438.458c-2.163,1.157.144,9.737.655,10.55.631,1.007,8.464-1.477,9.8-3.355,1.313-1.851-.176-6.234-1.331-8.186-.948-1.6-5.377-4.7-8.6-.533" transform="translate(-1524.493 -1265.377)" fill="#fe6026"/>
    <circle id="Ellipse_78" data-name="Ellipse 78" cx="2.291" cy="2.291" r="2.291" transform="translate(250.518 170.729)" fill="#231f20"/>
    <path id="Path_162" data-name="Path 162" d="M1790.6,1446.629a2.695,2.695,0,1,1,2.695-2.694A2.694,2.694,0,0,1,1790.6,1446.629Zm0-4.583a1.889,1.889,0,1,0,1.889,1.889A1.889,1.889,0,0,0,1790.6,1442.045Z" transform="translate(-1537.794 -1270.914)"/>
    <path id="Path_163" data-name="Path 163" d="M1761.114,1383.74a5.689,5.689,0,0,1-2.231-.466,6.72,6.72,0,0,1-3.54-3.7c-1.351-3.393-.17-6.828,2.746-7.988l.3.748c-2.491.993-3.479,3.978-2.3,6.944a5.9,5.9,0,0,0,3.108,3.262,4.657,4.657,0,0,0,3.594.074c2.263-.918,3.622-2.4,3.918-4.295a7.42,7.42,0,0,0-2.8-6.438l.516-.618a8.243,8.243,0,0,1,3.081,7.181c-.24,1.524-1.2,3.614-4.412,4.917A5.283,5.283,0,0,1,1761.114,1383.74Z" transform="translate(-1509.08 -1210.251)"/>
    <path id="Path_164" data-name="Path 164" d="M2077.891,2111.237s-.879,2.558-3.159.741,1.281-3.642,1.581-3.848S2077.891,2111.237,2077.891,2111.237Z" transform="translate(-1785.774 -1849.014)" fill="#ffb299"/>
    <path id="Path_165" data-name="Path 165" d="M2535.852,1604.749a29.338,29.338,0,0,0,11.381-3.04,6.529,6.529,0,0,1,2.584.133c.87,1.014-15.648,6.57-15.118,4.212C2534.728,1605.9,2535.469,1604.779,2535.852,1604.749Z" transform="translate(-2185.153 -1409.96)" fill="#b4c49e"/>
    <path id="Path_166" data-name="Path 166" d="M1385.379,3160.49c1.981,2.452,1.689,7.925,9.484,8.314s10.666,2.468,10.65,6.1c-.012,3.34-32.634,2.53-34.166,1.04-2.7-2.616,3.508-8.7,2.468-14.939C1373.316,3158.01,1383.76,3158.493,1385.379,3160.49Z" transform="translate(-1176.094 -2759.883)" fill="#fff"/>
    <path id="Path_167" data-name="Path 167" d="M1258.424,3140.833c1.914,2.37,1.632,7.656,9.162,8.033s10.3,2.384,10.292,5.9c-.012,3.227-31.528,2.441-33.01,1-2.605-2.529,3.388-8.41,2.384-14.434C1246.771,3138.437,1256.861,3138.9,1258.424,3140.833Z" transform="translate(-1066.474 -2742.889)" fill="#fff"/>
    <path id="Path_168" data-name="Path 168" d="M1155.2,2284.371c-3.825,10.045,7.218,51.335,12.2,61.047,4.5,8.771-3.75,47.622,1.781,58.436.869,1.7,16.444,1.762,15.616-.325-3.612-9.1-3.251-41.865-3.7-55.781-.526-16.242-1.925-52.175-13.7-63.377C1164.747,2281.841,1156.5,2280.943,1155.2,2284.371Z" transform="translate(-988.628 -1999.853)" fill="#5b5d70"/>
    <path id="Path_169" data-name="Path 169" d="M1157.9,2266.715c-3.624,10.046,20.133,54,21.978,63.378,1.745,8.878,2.983,49.317,9.2,55.156,2.279,2.138,12.5,0,12.5,0s2.954-44.682,1.812-54.642c-1.769-15.415-5.5-56.744-8.992-61.41C1188.92,2261.867,1161,2258.106,1157.9,2266.715Z" transform="translate(-991.327 -1982.197)" fill="#434559"/>
    <path id="Path_170" data-name="Path 170" d="M2051.678,2100.875a2.618,2.618,0,0,0,0,.35,1.887,1.887,0,0,0,1.671,2.043c1.894.154.626-3.285.626-4.191s-1.612-.706-1.889,0a9.7,9.7,0,0,0-.416,1.937" transform="translate(-1766.44 -1840.649)" fill="#ffb299"/>
    <path id="Path_171" data-name="Path 171" d="M2195.032,1651.224c-3.054-1.422-15.253,19.683-20.267,26.3-6.124,8.072-32.149,24.269-31.552,25.418a28.767,28.767,0,0,1,2.9,8.134c.4,1.936,27.99-13.755,36.817-19.224,3.432-2.13,9.985-7.257,12.095-10.7C2198.938,1674.768,2201.813,1654.382,2195.032,1651.224Z" transform="translate(-1845.788 -1452.884)" fill="#6b73a9"/>
    <path id="Path_172" data-name="Path 172" d="M2435.837,1382.709c-2.058,2.1-2.8,4.81-1.557,11.657.355,1.964-2.551,5.952-1.508,6.923.735.686,2.57-.087,3.95.293,1.25.344-.34,3.927,1.783,4.127,4.874.451,8.9-.222,11.119,10.007.6,2.782,9.065-4.047,9.065-6.895,0-3.781-8.286-2.335-5.951-18.9C2453.374,1385.369,2448.182,1370.114,2435.837,1382.709Z" transform="translate(-2096.609 -1215.949)" fill="#ffb299"/>
    <path id="Path_173" data-name="Path 173" d="M2359.707,3107.832c7.743,0,24.58-1.43,27.547-1.41,3.595.025-5.109-10.337-2.877-14.1,0,0-7.926-2.708-8.927-.7-2.584,5.17-2,9.765-15.154,11.747C2359.18,3103.536,2358.58,3107.832,2359.707,3107.832Z" transform="translate(-2032.946 -2700.941)" fill="#231f20"/>
    <path id="Path_174" data-name="Path 174" d="M2472.793,2291.411c-.133,1.1,11.716,2.783,11.272,0-1.622-10.2,4.812-41.018,5.637-54.754,1.052-17.53,13.419-64.46,14.709-68.687,1.516-4.968-17.285.029-20.346,4.227-1.622,2.224-8.475,46.3-10.2,61.506C2472.2,2248.372,2474.671,2275.308,2472.793,2291.411Z" transform="translate(-2131.498 -1899.101)" fill="#917987"/>
    <path id="Path_175" data-name="Path 175" d="M2591.124,3090.285c-.133,3.616.72,9.495-10.987,13.152-1.136.355-2.529,4.347-1.359,4.562,2.574.474,26.227-2.848,26.571-3.489,1.027-1.911-7.373-13.783-6.709-14.225C2599.444,3089.749,2591.2,3088.408,2591.124,3090.285Z" transform="translate(-2222.99 -2699.586)" fill="#221f1e"/>
    <path id="Path_176" data-name="Path 176" d="M2570.6,2154.619c3.04,17.02,1.753,71.7,3.2,75.648,1.571,4.284,7.53,38.719,9.269,44.349.727,2.354,9.922.734,10.734-.14,2.782-2.992-2.813-41.853-2.922-51.148-.133-11.493,15.975-65.579,11.209-74.286C2598.256,2142.03,2569.193,2146.748,2570.6,2154.619Z" transform="translate(-2216.241 -1881.522)" fill="#705c68"/>
    <path id="Path_177" data-name="Path 177" d="M2410.636,1323.328c-.916-.881-.146-4.846-1.417-4.883-5.513-.157-10.118-4.418-12.285-7.245-3.15-4.095-4.1-15.436,6.852-17.327,3.264-.563,7.5,6.535,10.159,8.506,2.252,1.667,8.19,0,10.553,3.781,5.126,8.2-4.568,13.546-4.568,19.531,0,.784-2.469-.359-2.992-.945-1.1-1.227,2.2-6.458-1.261-6.458-4.26,0-1.184,4.883-2.52,5.67A3.027,3.027,0,0,1,2410.636,1323.328Z" transform="translate(-2063.914 -1143.139)" fill="#000001"/>
    <path id="Path_178" data-name="Path 178" d="M2525.816,1602.211c7.706-.845,16.384,6.461,18.934,32.084,1.915,19.25,8.856,41.467,7.045,46.7-1.049,3.031-29.189,7.958-35.228,7.045-3.753-.567-5.025-40.265-6.07-53.747-.976-12.581,1.623-29.061,4.449-29.155,4.581-.152,10.32-2.4,10.869-2.929" transform="translate(-2164.003 -1410.4)" fill="#272e6c"/>
    <path id="Path_179" data-name="Path 179" d="M2267.415,2181.988c-2.165-.062-10.132-1.161-10.384,0-.228,1.065,3.793,2.092,3.663,3.167-.3,2.476-10.133-.608-9.38,3.355.281,1.483,8.306,1.712,10.986,1.053,1.7-.417,5.105-2.038,6.149-3.311C2269.143,2185.4,2268.512,2182.02,2267.415,2181.988Z" transform="translate(-1939.469 -1912.588)" fill="#ffb299"/>
    <path id="Path_180" data-name="Path 180" d="M2404.85,1645.694c.169-5.928-.3-20.935,8.506-22.143s11.624,6.442,10.416,26.169,5.032,31.2-8.455,39.454-29.791,14.494-31.6,14.293c0,0-4.926-6.79-3.02-7.246,4.227-1.007,18.458-10.858,21.748-16.908C2406.471,1671.908,2404.614,1654.116,2404.85,1645.694Z" transform="translate(-2051.282 -1428.849)" fill="#6b73a9"/>
    <path id="Path_181" data-name="Path 181" d="M2359.938,2171.4c.815.523,3.555,6.136,3.254,6.6-.623.953-4.8,1.472-5.279.916-.993-1.158-2.053-5.682-1.833-5.755S2359.278,2170.981,2359.938,2171.4Z" transform="translate(-2030.299 -1903.824)" fill="#272e6c"/>
    <path id="Path_182" data-name="Path 182" d="M2010.769,2066.924l.288-.035c1.435-.169,7.8-.861,8.771.035,1.1,1.012,9.863,1.807,6.71,6.717-.519.808-2.857,3.154-3.49,1.61-.154-.378-.2-.872-1.611-.266-.932.4.335-3.02-3.154-2.544-1.4.19-1.006,1.27-5.637,0-1.116-.306-3.556-2.958-3.556-2.958Z" transform="translate(-1729.529 -1812.913)" fill="#c98f7c"/>
    <path id="Path_183" data-name="Path 183" d="M1431.645,1401.818c2.319,1.629-1.606,12.33,1.427,21.249.445,1.309-4.408-.808-5.529,0-1.485,1.065,1.784,5.707-5.707,5.172a8.363,8.363,0,0,0-3.568,5.886l-16.588,5.175s6.242-15.363,7.491-18.739S1419.014,1392.942,1431.645,1401.818Z" transform="translate(-1202.983 -1235.058)" fill="#c98f7c"/>
    <path id="Path_184" data-name="Path 184" d="M1384.361,1301.464c-2.015-1.98,1.523-5.482-4.926-10.175-7.848-5.715-4.573-17.427-1.249-18.727,4.723-1.849,15.518-2.718,17.48-4.659s5.886-10.045,16.588-9.292,11.95,10.384,9.81,16.27-6.064,14.342-20.154,14.342c-2.072,0,2.319,7.861-5.529,6.17-1.886-.406,1.078-6.505-4.637-6.17-2.726.16-1.962,2.245-1.606,10.806C1390.207,1301.517,1385.427,1302.508,1384.361,1301.464Z" transform="translate(-1179.498 -1112.555)" fill="#231f20"/>
    <path id="Path_185" data-name="Path 185" d="M1220.559,1633.327s32.339-9.663,3.287,50.995c0,0-7.674,37.091-7.855,44.286-.068,2.805-34.355,6.173-37.307-3.757S1197.21,1637.078,1220.559,1633.327Z" transform="translate(-1009.438 -1436.94)" fill="#6b705c"/>
    <path id="Path_186" data-name="Path 186" d="M1344.2,2062.5l-2.415,23.031s21.472-14.288,16.641-24.918C1355.264,2053.636,1346.62,2057.947,1344.2,2062.5Z" transform="translate(-1151.066 -1804.651)"/>
    <path id="Path_187" data-name="Path 187" d="M1434.52,1704.371l2.469,3.657,16.319-21.7s18.52-36.528-4.295-35.737c-6.442,3.207-12.883,4.549-14.494,9.648v-5.82s16.3-11.316,23.451-3.821S1447.135,1698.576,1434.52,1704.371Z" transform="translate(-1231.451 -1450.177)"/>
    <path id="Path_188" data-name="Path 188" d="M1488.45,1694.427c.019-5.059,4.7-19.909,13.286-15.3,10.87,5.838,22.632,29.994,43.078,42.433,3.6,2.193,14.293,7.107,15.3,7.107,2.021,0-1.6,7.154-3.624,7.227-5.637.2-23.753-5.26-37.24-13.861-13.286-8.474-20.768-11.722-22.746-14.954C1496.5,1707.077,1488.427,1700.466,1488.45,1694.427Z" transform="translate(-1278.201 -1476.374)" fill="#a0a78b"/>
    <path id="Path_189" data-name="Path 189" d="M1103.453,1564.08s-7.735,55.938-13.773,75.842c-15.914,18.828-35.3,4.505-36.636,3-6.039-6.844,2.512-41.4,7.246-61.6,4.562-19.458.94-46.3,33.766-36.234C1098.828,1546.551,1107.488,1547.981,1103.453,1564.08Z" transform="translate(-898.955 -1359.04)" fill="#272e6c"/>
    <path id="Path_190" data-name="Path 190" d="M1266,1585.684l-.738-.322c.144-.328,14.167-32.579,8.475-40.057-1.311-.173-9.556-1.331-12.371-3.328l.466-.656c2.833,2.01,12.075,3.195,12.168,3.2l.158.02.1.124C1280.523,1552.288,1266.6,1584.324,1266,1585.684Z" transform="translate(-1081.352 -1357.671)" fill="#eaebf3"/>
    <path id="Path_191" data-name="Path 191" d="M1111.372,1569.455c.533,1.464,14.225,5.233,16.109,3.757,5.275-4.144,12.616-25.827,4.022-30.638C1120.613,1536.483,1110.158,1566.1,1111.372,1569.455Z" transform="translate(-951.24 -1358.044)" fill="#6b73a9"/>
    <path id="Path_192" data-name="Path 192" d="M1039.59,2010.2c.567-.113,5.458-2.751,5.526-3.091l1.673,4.469Z" transform="translate(-889.097 -1761.451)" fill="#6b73a9"/>
    <path id="Path_193" data-name="Path 193" d="M1022.087,2028.7c.641-.576,27.895-.266,29.649,2.11,1.529,2.069-.253,34.159-21.987,33.647C1015.646,2064.126,1019.079,2031.413,1022.087,2028.7Z" transform="translate(-871.594 -1779.953)" fill="#6b73a9"/>
    <line id="Line_14" data-name="Line 14" x2="6.056" y2="2.235" transform="translate(181.339 226.788)"/>
    <rect id="Rectangle_400" data-name="Rectangle 400" width="0.805" height="6.455" transform="translate(181.196 227.152) rotate(-69.74)" fill="#eaebf3"/>
    <path id="Path_194" data-name="Path 194" d="M1991.609,2053.636c-.813.666-4.016,6.365-4.186,7.538-.073.509,3.637.2,4.186,0,1.909-.712,3.521-5.514,2.992-6.487C1994.213,2053.977,1992.236,2053.125,1991.609,2053.636Z" transform="translate(-1710.745 -1801.648)" fill="#6b705c"/>
    <path id="Path_195" data-name="Path 195" d="M2054.5,2043.41s-2.016,0-2.757-1.3-3.749-.8-4.66-.482c-2,.707-5.872,5.655-5.023,6.806.682.925,2.846-2.529,4.574-2.848s3.306.415,3.633,1.944c.208.969,3.126.7,5.319.465Z" transform="translate(-1758.005 -1791.062)" fill="#ffb299"/>
    <path id="Path_196" data-name="Path 196" d="M2117,2038.208a9.624,9.624,0,0,1,4.229-2.009c.921.011,2.2,7.827,2.449,8.561.063.183-4.126.032-4.292-.666C2119.249,2043.494,2116.624,2038.879,2117,2038.208Z" transform="translate(-1823.044 -1786.668)" fill="#272e6c"/>
  </g>
</svg>
