<svg xmlns="http://www.w3.org/2000/svg" width="768" height="708.492" viewBox="0 0 768 708.492">
  <g id="Illustration" transform="translate(0.019 -24)">
    <rect id="Rectangle_374" data-name="Rectangle 374" width="767.891" height="627.167" transform="translate(0.007 24)" fill="#eaebf3"/>
    <path id="Path_118" data-name="Path 118" d="M374.585,2492.2c-23.126-2.978-48.723-19.078-57.26-73.614-16.018-54.533,32.037-52.487,35.788,8.182.871,14.11.682-52.137,21.472-52.312s14.656,52.994,14.656,61.255c0,2.581,27.948-23.938,18.405,14.578-.616,2.484,33.367-6.48,2.1,27.189C403.256,2484.453,391.944,2494.44,374.585,2492.2Z" transform="translate(-241.185 -1963.556)" fill="#14594a"/>
    <path id="Path_119" data-name="Path 119" d="M414.736,2517.222c-20.4-12.034-52.49-108.625-53.846-112.73l1.033-.342c.331,1,33.311,100.308,53.365,112.128Z" transform="translate(-279.581 -1987.904)" fill="#fff"/>
    <path id="Path_120" data-name="Path 120" d="M643.6,2492.635c-10.545-16.009-4.771-114.231-4.519-118.4l1.08.066c-.061,1.019-6,102.032,4.341,117.739Z" transform="translate(-506.222 -1963.369)" fill="#fff"/>
    <path id="Path_121" data-name="Path 121" d="M673.078,2743.433h-.05a1.905,1.905,0,0,1-1.683-1.007c-3.929-7.052,24.3-56.852,27.537-62.507l.945.54c-8.7,15.219-30.6,55.925-27.526,61.439a.828.828,0,0,0,.77.445h.036c4.14,0,25.487-24.035,38.864-40.243l.841.694C709.364,2706.965,679.09,2743.433,673.078,2743.433Z" transform="translate(-533.852 -2214.039)" fill="#fff"/>
    <path id="Path_122" data-name="Path 122" d="M427.342,2786.373c-13.259-.345-48.055,8.521-49.762-18.4-.3-4.68,7.061-9.113,18.063-5.113,3.749,1.362-10.225-23.858,15.338-25.22,11.929-.341,7.984,19.518,12.269,19.518,3.409,0-1.022-30.766,23.859-21.329,18.8,7.128-1.856,35.676,2.554,34.96C458.524,2769.345,480.171,2787.75,427.342,2786.373Z" transform="translate(-293.26 -2258.408)" fill="#aabd95"/>
    <path id="Path_123" data-name="Path 123" d="M424.315,2939.323c-7.189-.064-46.275-17.711-47.935-18.463l.448-.99c.405.179,40.536,18.3,47.5,18.358Z" transform="translate(-292.283 -2410.802)" fill="#029f7c"/>
    <path id="Path_124" data-name="Path 124" d="M557.948,2805.348c-19.067-14.639-20.684-48.324-20.7-48.664l1.08-.045c.015.334,1.62,33.517,20.273,47.845Z" transform="translate(-424.199 -2276.951)" fill="#029f7c"/>
    <path id="Path_125" data-name="Path 125" d="M665.965,2794.443l-.785-.753c7.98-8.312,17.15-49.871,17.244-50.29l1.063.233C683.108,2745.352,674.146,2785.9,665.965,2794.443Z" transform="translate(-529.104 -2266.095)" fill="#029f7c"/>
    <path id="Path_126" data-name="Path 126" d="M683.817,2966.455l-.328-1.036c12.73-4.022,25.807-12.34,25.939-12.419l.587.915C709.884,2954,696.688,2962.391,683.817,2966.455Z" transform="translate(-544.118 -2437.97)" fill="#029f7c"/>
    <path id="Path_127" data-name="Path 127" d="M.012,2793.793l767.969-9.333-.534,218.624-767.466,0Z" transform="translate(0 -2270.592)" fill="#515a9a"/>
    <path id="Path_128" data-name="Path 128" d="M3082.427,2637.3c-12.863-19.646,110.628-90.045,123.959-76.714C3222.05,2576.247,3092.5,2652.686,3082.427,2637.3Z" transform="translate(-2510.52 -2114.815)" fill="#aabd95"/>
    <path id="Path_129" data-name="Path 129" d="M3085.683,2643.1l-.573-.925c.72-.443,71.507-44.435,105.623-65.5,17.836-11.011,18.238-11.182,18.409-11.256l.43,1c-.3.144-3.722,2.2-18.266,11.182C3157.189,2598.659,3086.4,2642.651,3085.683,2643.1Z" transform="translate(-2513.488 -2120.148)" fill="#029f7c"/>
    <rect id="Rectangle_375" data-name="Rectangle 375" width="1.087" height="12.966" transform="translate(677.305 457.455) rotate(-69.42)" fill="#029f7c"/>
    <rect id="Rectangle_376" data-name="Rectangle 376" width="17.3" height="1.087" transform="translate(665.635 463.752) rotate(-67.6)" fill="#029f7c"/>
    <rect id="Rectangle_377" data-name="Rectangle 377" width="1.089" height="17.608" transform="translate(652.114 473.012) rotate(-67.84)" fill="#029f7c"/>
    <path id="Path_130" data-name="Path 130" d="M3212.539,2487.335l-1.049-.291,5.375-19.424,1.048.291Z" transform="translate(-2565.874 -2010.779)" fill="#029f7c"/>
    <rect id="Rectangle_378" data-name="Rectangle 378" width="1.089" height="24.089" transform="translate(618.979 493.761) rotate(-83.07)" fill="#029f7c"/>
    <rect id="Rectangle_379" data-name="Rectangle 379" width="21.416" height="1.089" transform="translate(625.89 488.572) rotate(-77.59)" fill="#029f7c"/>
    <rect id="Rectangle_380" data-name="Rectangle 380" width="1.089" height="17.496" transform="translate(599.424 505.842) rotate(-71.37)" fill="#029f7c"/>
    <path id="Path_131" data-name="Path 131" d="M3266.818,2779.862l-.573-.926.287.463-.411-.351c.565-.9,4.164-14.011,6.3-22.068l1.053.278C3267.617,2779.367,3267.042,2779.725,3266.818,2779.862Z" transform="translate(-2661.92 -2277.229)" fill="#fff"/>
    <path id="Path_132" data-name="Path 132" d="M3047.547,2096.644c-56.952-26.351,86.286-211.8,119.2-203.02C3186.339,1898.844,3086.735,2114.776,3047.547,2096.644Z" transform="translate(-2471.83 -1569.016)" fill="#0e5545"/>
    <path id="Path_133" data-name="Path 133" d="M3085.359,2095.031a.675.675,0,0,1-.359-.1l.562-.935a.362.362,0,0,0-.292-.045c5.254-2.16,90.26-145.444,122.568-200.475l.94.551c-11.984,20.41-117.254,199.457-123.227,200.973A.775.775,0,0,1,3085.359,2095.031Z" transform="translate(-2513.398 -1569.145)" fill="#fff"/>
    <rect id="Rectangle_381" data-name="Rectangle 381" width="17.676" height="1.089" transform="matrix(0.923, -0.384, 0.384, 0.923, 678.388, 351.782)" fill="#fff"/>
    <rect id="Rectangle_382" data-name="Rectangle 382" width="1.087" height="17.167" transform="matrix(0.991, -0.133, 0.133, 0.991, 678.815, 330.206)" fill="#fff"/>
    <rect id="Rectangle_383" data-name="Rectangle 383" width="34.224" height="1.089" transform="translate(664.594 374.95) rotate(-88.66)" fill="#fff"/>
    <rect id="Rectangle_384" data-name="Rectangle 384" width="29.431" height="1.089" transform="matrix(0.933, -0.359, 0.359, 0.933, 652.836, 394.912)" fill="#fff"/>
    <rect id="Rectangle_385" data-name="Rectangle 385" width="1.087" height="43.419" transform="translate(644.822 361.576) rotate(-2.61)" fill="#fff"/>
    <rect id="Rectangle_386" data-name="Rectangle 386" width="37.928" height="1.089" transform="matrix(0.938, -0.345, 0.345, 0.938, 623.148, 444.445)" fill="#fff"/>
    <rect id="Rectangle_387" data-name="Rectangle 387" width="32.465" height="1.089" transform="matrix(0.99, -0.139, 0.139, 0.99, 604.239, 475.666)" fill="#fff"/>
    <path id="Path_134" data-name="Path 134" d="M2959.682,2320.955,2945.31,2281.8l1.024-.375,14.37,39.151Z" transform="translate(-2347.601 -1858.099)" fill="#fff"/>
    <rect id="Rectangle_388" data-name="Rectangle 388" width="1.089" height="41.335" transform="translate(622.668 388.299) rotate(-14.3)" fill="#fff"/>
    <path id="Path_135" data-name="Path 135" d="M3020.991,1907.929c-53.973-30.712,12.638-261.155,45-244.546C3119.688,1690.944,3050.744,1924.864,3020.991,1907.929Z" transform="translate(-2444.186 -1379.76)" fill="#aabd95"/>
    <path id="Path_136" data-name="Path 136" d="M3111.969,1910.017l-1.08-.181c.2-1.218,20.412-122.807,33.748-193.675,9.3-49.441,10.854-50.72,11.437-51.2l.693.84c-.7.682-3.082,8.164-11.06,50.564C3132.38,1787.22,3112.169,1908.8,3111.969,1910.017Z" transform="translate(-2534.627 -1381.755)" fill="#029f7c"/>
    <rect id="Rectangle_389" data-name="Rectangle 389" width="36.783" height="1.089" transform="matrix(0.744, -0.668, 0.668, 0.744, 610.479, 332.514)" fill="#029f7c"/>
    <rect id="Rectangle_390" data-name="Rectangle 390" width="1.089" height="31.342" transform="matrix(0.894, -0.447, 0.447, 0.894, 596.523, 304.181)" fill="#029f7c"/>
    <rect id="Rectangle_391" data-name="Rectangle 391" width="44.29" height="1.087" transform="matrix(0.8, -0.6, 0.6, 0.8, 598.693, 398.634)" fill="#029f7c"/>
    <rect id="Rectangle_392" data-name="Rectangle 392" width="1.089" height="45.359" transform="translate(574.531 372.652) rotate(-28.35)" fill="#029f7c"/>
    <rect id="Rectangle_393" data-name="Rectangle 393" width="39.387" height="1.094" transform="matrix(0.856, -0.517, 0.517, 0.856, 597.679, 423.903)" fill="#029f7c"/>
    <rect id="Rectangle_394" data-name="Rectangle 394" width="1.089" height="52.235" transform="translate(562.247 410.576) rotate(-30.34)" fill="#029f7c"/>
    <rect id="Rectangle_395" data-name="Rectangle 395" width="42.962" height="1.089" transform="matrix(0.809, -0.588, 0.588, 0.809, 586.737, 466.883)" fill="#029f7c"/>
    <rect id="Rectangle_396" data-name="Rectangle 396" width="37.291" height="1.089" transform="translate(581.986 494.98) rotate(-35.06)" fill="#029f7c"/>
    <rect id="Rectangle_397" data-name="Rectangle 397" width="1.087" height="38.039" transform="translate(585.299 335.606) rotate(-29.15)" fill="#029f7c"/>
    <rect id="Rectangle_398" data-name="Rectangle 398" width="38.144" height="1.089" transform="matrix(0.746, -0.666, 0.666, 0.746, 606.466, 354.365)" fill="#029f7c"/>
    <path id="Path_137" data-name="Path 137" d="M2929.419,2503.586s-56.937-46.329-35.724-114.427C2893.694,2389.16,2946.162,2418.184,2929.419,2503.586Z" transform="translate(-2352.642 -1975.611)" fill="#0e5545"/>
    <path id="Path_138" data-name="Path 138" d="M2949.055,2507.2c-16.233-51.6-35.569-113.229-35.516-113.8l1.08.1-.54-.048.54-.08c.325,1.619,23.347,74.953,35.476,113.5Z" transform="translate(-2372.797 -1979.063)" fill="#fff"/>
    <path id="Path_139" data-name="Path 139" d="M2957.4,2479.917l-1.023-.375c.428-1.168,4.32-11.426,8.623-11.242l-.043,1.079h-.066C2961.918,2469.384,2958.482,2476.97,2957.4,2479.917Z" transform="translate(-2407.927 -2040.505)" fill="#fff"/>
    <path id="Path_140" data-name="Path 140" d="M2904.758,2583.084c-7.369-2.8-15.588-5.54-16.6-5.271l-.417-1c1.5-.659,12.671,3.461,17.4,5.257Z" transform="translate(-2351.641 -2129.428)" fill="#fff"/>
    <path id="Path_141" data-name="Path 141" d="M3008.867,2616.959l-.927-.571c1.031-1.679,10.189-16.435,14.071-17.1l.18,1.08C3019.622,2600.8,3012.81,2610.528,3008.867,2616.959Z" transform="translate(-2450.207 -2147.921)" fill="#fff"/>
    <path id="Path_142" data-name="Path 142" d="M2937.708,2736.524c-.155-.085-15.561-8.553-20.792-7.542l-.207-1.069c5.633-1.063,20.878,7.3,21.526,7.659Z" transform="translate(-2375.396 -2253.319)" fill="#fff"/>
    <path id="Path_143" data-name="Path 143" d="M3046.96,2745.384l-.9-.624c1.122-1.62,11.039-15.775,13.626-16.771l.392,1.017C3058.37,2729.666,3051.125,2739.4,3046.96,2745.384Z" transform="translate(-2481.467 -2253.457)" fill="#fff"/>
    <path id="Path_144" data-name="Path 144" d="M2991.416,2859.221c-3.687-1.217-13.759-4.188-16.05-3.3l-.4-1.013c3.07-1.195,15.394,2.816,16.788,3.279Z" transform="translate(-2423.172 -2357.355)" fill="#fff"/>
    <path id="Path_145" data-name="Path 145" d="M3077.8,2848.75c-.36-1.152,7.507-15.118,9.586-15.8l.342,1.034c-1.44.479-8.67,12.892-8.872,14.578l-.327-.039Z" transform="translate(-2507.48 -2339.526)" fill="#fff"/>
    <path id="Path_146" data-name="Path 146" d="M3044.773,2942.558c-6.159-.623-9.509-1.217-9.954-1.764l.846-.684c.5.3,5.1.949,9.218,1.367Z" transform="translate(-2472.249 -2427.4)" fill="#fff"/>
    <path id="Path_147" data-name="Path 147" d="M1065.906,2248.733c-4.94,6.323-25.127-9.3-27.188-17.061-4.642-17.471-7.963-121.308,32.205-125.532s149.951-7.265,164.783,6.947,25.489,38.707,42.748,43.6,100.416-3.02,84.75,79.416c-.72,3.748-15.051,3.013-15.239-.8-.54-10.979,7.908-43.294-42.593-35.435-22.073,3.437-24.388,18.839-26.908,39.515-.48,3.929-129.7,3.42-144.394,0-11.82-2.754-4.431-36.669-26.307-40.8C1055.178,2188.666,1070.14,2243.319,1065.906,2248.733Z" transform="translate(-833.212 -1740.644)" fill="#c04b4b"/>
    <path id="Path_148" data-name="Path 148" d="M1474.333,2136.5c7.4,1.9,37.476,36.984,31.664,39.92-1.98,1-160.469-1.865-165.36-7.456-6.794-7.77,2.175-35.583,12.419-36.879C1373.087,2129.55,1459.49,2132.686,1474.333,2136.5Z" transform="translate(-1081.049 -1764.053)" fill="#cbcee1"/>
    <circle id="Ellipse_73" data-name="Ellipse 73" cx="26.594" cy="26.594" r="26.594" transform="translate(458.431 467.799)" fill="#231f20"/>
    <path id="Path_149" data-name="Path 149" d="M2475.4,2737.955a28.228,28.228,0,1,1,28.226-28.229A28.258,28.258,0,0,1,2475.4,2737.955Zm0-53.189a24.959,24.959,0,1,0,24.961,24.958A24.99,24.99,0,0,0,2475.4,2684.766Z" transform="translate(-1990.366 -2215.335)" fill="#231f20"/>
    <circle id="Ellipse_74" data-name="Ellipse 74" cx="15.169" cy="15.169" r="15.169" transform="translate(469.856 479.224)" fill="#fff"/>
    <path id="Path_150" data-name="Path 150" d="M2529.927,2780.516a16.258,16.258,0,1,1,16.258-16.258A16.257,16.257,0,0,1,2529.927,2780.516Zm0-30.338a14.08,14.08,0,1,0,14.08,14.08,14.081,14.081,0,0,0-14.08-14.08Z" transform="translate(-2044.897 -2269.866)" fill="#231f20"/>
    <circle id="Ellipse_75" data-name="Ellipse 75" cx="26.594" cy="26.594" r="26.594" transform="translate(236.458 472.153)" fill="#231f20"/>
    <path id="Path_151" data-name="Path 151" d="M1242.077,2762.152a28.227,28.227,0,1,1,28.227-28.227A28.258,28.258,0,0,1,1242.077,2762.152Zm0-53.188a24.961,24.961,0,1,0,24.962,24.961A24.991,24.991,0,0,0,1242.077,2708.964Z" transform="translate(-979.023 -2235.179)" fill="#231f20"/>
    <circle id="Ellipse_76" data-name="Ellipse 76" cx="15.169" cy="15.169" r="15.169" transform="translate(247.883 483.578)" fill="#fff"/>
    <path id="Path_152" data-name="Path 152" d="M1296.608,2804.716a16.258,16.258,0,1,1,16.258-16.258A16.259,16.259,0,0,1,1296.608,2804.716Zm0-30.339a14.08,14.08,0,1,0,14.08,14.081A14.081,14.081,0,0,0,1296.608,2774.377Z" transform="translate(-1033.554 -2289.71)" fill="#231f20"/>
    <path id="Path_153" data-name="Path 153" d="M1597.37,1978.349l4.609,42.81h3.508l-5.7-42.81Z" transform="translate(-1242.268 -1609.568)" fill="#c04b4b"/>
    <path id="Path_154" data-name="Path 154" d="M1409.616,1971.34l-3.287,42.776,3.287.6,2.624-42.864Z" transform="translate(-1085.611 -1603.819)" fill="#c04b4b"/>
    <path id="Path_155" data-name="Path 155" d="M1196.81,2010.263l9.879-41.164h3.724l-10.956,41.164Z" transform="translate(-913.801 -1601.983)" fill="#c04b4b"/>
    <path id="Path_156" data-name="Path 156" d="M2216.526,2314.981c1.673-4.65,13.842,4.2,9.885,17.127-.627,2.047-8.582,2.142-8.569,0C2217.875,2326.319,2214.554,2320.46,2216.526,2314.981Z" transform="translate(-1800.721 -1913.754)" fill="#bd2e2e"/>
    <path id="Path_157" data-name="Path 157" d="M2209.843,1281.017a12.767,12.767,0,0,1-7.91-2.383,6.314,6.314,0,0,1-2.684-4.86h1.08a5.251,5.251,0,0,0,2.262,4c2.854,2.212,7.339,2.752,12.306,1.479a8.372,8.372,0,0,0,3.09-4.805,4.416,4.416,0,0,0-1.621-3.947c-.637-.587-2.7-.565-4.706-.54-3.623.031-8.13.079-8.216-3.486-.133-5.452,1.065-8.83,3.56-10.046,4.251-2.063,10.513,3.031,10.777,3.25l-.692.841c-.059-.049-5.984-4.871-9.609-3.111-2.077,1.012-3.06,4.053-2.947,9.041.056,2.313,2.98,2.466,7.117,2.423,2.419-.025,4.5-.043,5.456.835a5.432,5.432,0,0,1,1.837,5.538,8.912,8.912,0,0,1-3.779,5.07A21.538,21.538,0,0,1,2209.843,1281.017Z" transform="translate(-1787.068 -1046.346)" fill="#231f20"/>
    <path id="Path_158" data-name="Path 158" d="M2220.387,1267.686l-1.067-.214c6.452-32.132,6.66-32.132,7.258-32.132v.54l.464.27C2226.6,1237.15,2222.822,1255.557,2220.387,1267.686Z" transform="translate(-1803.525 -1029.46)" fill="#231f20"/>
    <rect id="Rectangle_399" data-name="Rectangle 399" width="33.191" height="1.089" transform="translate(421.591 238.846) rotate(-78.62)" fill="#231f20"/>
    <path id="Path_159" data-name="Path 159" d="M1797.25,1229.109s5.306,9.116-4.885,13.873c-3.21,1.5-11.171,1.44-12.724-6.244-1.789-8.841,6.964-15.479,12.365-12,0,0,17.356-22.7,18.128-18.007.979,5.952-3.148,5.608-4.562,7.2-.742.837.281,3.625-.481,4.442s-2.125-.285-2.041,3.959c.025,1.3-6.877,7.6-5.8,6.776" transform="translate(-1442.786 -1005.471)" fill="#ff815c"/>
    <circle id="Ellipse_77" data-name="Ellipse 77" cx="2.79" cy="2.79" r="2.79" transform="translate(341.789 227.959)" fill="#231f20"/>
    <path id="Path_160" data-name="Path 160" d="M1808.453,1361.626a3.333,3.333,0,1,1,3.333-3.333A3.334,3.334,0,0,1,1808.453,1361.626Zm0-5.579a2.244,2.244,0,1,0,2.245,2.244A2.244,2.244,0,0,0,1808.453,1356.047Z" transform="translate(-1463.875 -1127.549)"/>
    <path id="Path_161" data-name="Path 161" d="M1773.8,1439.727c-2.925,1.564.195,13.163.885,14.263.853,1.361,11.443-2,13.245-4.535,1.775-2.5-.238-8.429-1.8-11.067-1.281-2.16-7.27-6.35-11.624-.72" transform="translate(-1437.18 -1193.062)" fill="#fe6026"/>
    <circle id="Ellipse_78" data-name="Ellipse 78" cx="3.098" cy="3.098" r="3.098" transform="translate(338.692 243.485)" fill="#231f20"/>
    <path id="Path_162" data-name="Path 162" d="M1791.552,1448.525a3.643,3.643,0,1,1,3.643-3.643A3.642,3.642,0,0,1,1791.552,1448.525Zm0-6.2a2.554,2.554,0,1,0,2.554,2.554A2.554,2.554,0,0,0,1791.552,1442.329Z" transform="translate(-1449.762 -1198.3)"/>
    <path id="Path_163" data-name="Path 163" d="M1763.341,1388.131a7.694,7.694,0,0,1-3.016-.629,9.088,9.088,0,0,1-4.786-5.008c-1.827-4.587-.23-9.231,3.713-10.8l.4,1.011c-3.368,1.343-4.7,5.378-3.1,9.388a7.978,7.978,0,0,0,4.2,4.409,6.3,6.3,0,0,0,4.859.1c3.06-1.241,4.9-3.248,5.3-5.806.459-2.93-1.063-6.427-3.779-8.7l.7-.836c3.008,2.52,4.68,6.415,4.166,9.708-.324,2.061-1.62,4.886-5.965,6.647A7.13,7.13,0,0,1,1763.341,1388.131Z" transform="translate(-1422.6 -1140.916)"/>
    <path id="Path_164" data-name="Path 164" d="M2079.269,2112.333s-1.187,3.458-4.271,1,1.732-4.923,2.137-5.2S2079.269,2112.333,2079.269,2112.333Z" transform="translate(-1684.338 -1745.154)" fill="#ffb299"/>
    <path id="Path_165" data-name="Path 165" d="M2536.261,1605.843a39.672,39.672,0,0,0,15.387-4.11,8.826,8.826,0,0,1,3.494.18c1.177,1.371-21.156,8.882-20.438,5.695C2534.742,1607.4,2535.744,1605.885,2536.261,1605.843Z" transform="translate(-2062.131 -1329.83)" fill="#b4c49e"/>
    <path id="Path_166" data-name="Path 166" d="M1390.558,3161.058c2.678,3.314,2.284,10.715,12.823,11.241s14.42,3.336,14.4,8.254c-.016,4.515-44.119,3.419-46.191,1.405-3.646-3.537,4.743-11.768,3.337-20.2C1374.25,3157.7,1388.37,3158.358,1390.558,3161.058Z" transform="translate(-1107.611 -2606.792)" fill="#fff"/>
    <path id="Path_167" data-name="Path 167" d="M1263.428,3141.382c2.588,3.2,2.207,10.352,12.386,10.86s13.931,3.224,13.915,7.975c-.017,4.363-42.624,3.3-44.627,1.357-3.521-3.419,4.581-11.369,3.224-19.514C1247.674,3138.143,1261.315,3138.767,1263.428,3141.382Z" transform="translate(-1003.916 -2590.716)" fill="#fff"/>
    <path id="Path_168" data-name="Path 168" d="M1155.474,2285.161c-5.171,13.581,9.759,69.4,16.5,82.532,6.089,11.857-5.07,64.382,2.409,79,1.175,2.3,22.231,2.382,21.112-.439-4.883-12.3-4.4-56.6-5-75.413-.71-21.958-2.6-70.537-18.517-85.682C1168.386,2281.741,1157.236,2280.527,1155.474,2285.161Z" transform="translate(-930.277 -1887.839)" fill="#5b5d70"/>
    <path id="Path_169" data-name="Path 169" d="M1158.027,2268.46c-4.9,13.581,27.219,73,29.713,85.682,2.36,12,4.033,66.675,12.443,74.567,3.081,2.89,16.9,0,16.9,0s3.994-60.408,2.449-73.872c-2.392-20.84-7.438-76.714-12.156-83.022C1199.971,2261.905,1162.222,2256.821,1158.027,2268.46Z" transform="translate(-932.831 -1871.139)" fill="#434559"/>
    <path id="Path_170" data-name="Path 170" d="M2051.681,2101.721a3.485,3.485,0,0,0,0,.474,2.551,2.551,0,0,0,2.259,2.762c2.56.208.846-4.44.846-5.666s-2.179-.955-2.554,0a13.108,13.108,0,0,0-.562,2.617" transform="translate(-1666.049 -1737.241)" fill="#ffb299"/>
    <path id="Path_171" data-name="Path 171" d="M2213.272,1651.248c-4.129-1.921-20.621,26.611-27.4,35.552-8.279,10.913-43.464,32.811-42.656,34.365a38.926,38.926,0,0,1,3.924,11c.54,2.617,37.841-18.6,49.773-25.99,4.64-2.88,13.5-9.81,16.352-14.467C2218.552,1683.078,2222.44,1655.517,2213.272,1651.248Z" transform="translate(-1741.108 -1370.435)" fill="#6b73a9"/>
    <path id="Path_172" data-name="Path 172" d="M2436.995,1384.425c-2.782,2.839-3.78,6.5-2.1,15.76.48,2.654-3.448,8.047-2.04,9.359.994.927,3.475-.117,5.34.4,1.69.464-.459,5.309,2.412,5.579,6.59.61,12.026-.3,15.032,13.53.818,3.761,12.256-5.472,12.256-9.321,0-5.112-11.2-3.157-8.044-25.558C2460.7,1388.022,2453.685,1367.4,2436.995,1384.425Z" transform="translate(-1978.374 -1146.306)" fill="#ffb299"/>
    <path id="Path_173" data-name="Path 173" d="M2359.918,3113.8c10.468,0,33.23-1.934,37.242-1.906,4.86.034-6.908-13.976-3.89-19.057,0,0-10.716-3.662-12.07-.954-3.493,6.989-2.7,13.2-20.487,15.881C2359.208,3107.99,2358.4,3113.8,2359.918,3113.8Z" transform="translate(-1918.151 -2551.035)" fill="#231f20"/>
    <path id="Path_174" data-name="Path 174" d="M2472.793,2335.583c-.179,1.487,15.839,3.763,15.24,0-2.193-13.789,6.505-55.453,7.621-74.023,1.421-23.7,18.142-87.146,19.886-92.86,2.049-6.717-23.369.039-27.507,5.714-2.193,3.007-11.458,62.6-13.79,83.152C2472,2277.4,2475.333,2313.813,2472.793,2335.583Z" transform="translate(-2011.376 -1792.533)" fill="#917987"/>
    <path id="Path_175" data-name="Path 175" d="M2595.624,3090.625c-.179,4.888.974,12.836-14.854,17.781-1.535.48-3.419,5.877-1.837,6.168,3.48.641,35.457-3.851,35.922-4.718,1.389-2.583-9.966-18.634-9.07-19.231C2606.873,3089.9,2595.722,3088.088,2595.624,3090.625Z" transform="translate(-2097.923 -2549.753)" fill="#221f1e"/>
    <path id="Path_176" data-name="Path 176" d="M2570.616,2157.785c4.11,23.01,2.371,96.929,4.33,102.271,2.125,5.792,10.181,52.346,12.53,59.957.982,3.183,13.414.993,14.512-.189,3.761-4.045-3.8-56.582-3.951-69.148-.18-15.538,21.6-88.658,15.155-100.43C2608.007,2140.766,2568.715,2147.144,2570.616,2157.785Z" transform="translate(-2091.539 -1775.905)" fill="#705c68"/>
    <path id="Path_177" data-name="Path 177" d="M2416.2,1333.705c-1.238-1.191-.2-6.551-1.916-6.6-7.453-.213-13.679-5.974-16.608-9.795-4.26-5.536-5.538-20.868,9.263-23.425,4.413-.761,10.135,8.835,13.734,11.5,3.045,2.253,11.073,0,14.267,5.111,6.931,11.087-6.175,18.313-6.175,26.406,0,1.06-3.338-.486-4.045-1.278-1.481-1.66,2.98-8.731-1.7-8.731-5.759,0-1.6,6.6-3.407,7.666C2418.851,1335,2416.833,1334.316,2416.2,1333.705Z" transform="translate(-1947.445 -1077.431)" fill="#000001"/>
    <path id="Path_178" data-name="Path 178" d="M2531.281,1602.233c10.418-1.143,22.15,8.735,25.6,43.376,2.589,26.025,11.973,56.061,9.523,63.137-1.418,4.1-39.461,10.759-47.625,9.525-5.073-.766-6.794-54.436-8.207-72.662-1.32-17.008,2.193-39.289,6.016-39.416,6.192-.205,13.951-3.24,14.693-3.96" transform="translate(-2042.124 -1330.246)" fill="#272e6c"/>
    <path id="Path_179" data-name="Path 179" d="M2273.1,2182.174c-2.926-.083-13.7-1.569-14.039,0-.308,1.44,5.129,2.829,4.952,4.282-.409,3.348-13.7-.823-12.682,4.535.379,2.006,11.229,2.315,14.852,1.425,2.292-.563,6.9-2.756,8.313-4.476C2275.432,2186.792,2274.579,2182.218,2273.1,2182.174Z" transform="translate(-1829.726 -1805.292)" fill="#ffb299"/>
    <path id="Path_180" data-name="Path 180" d="M2413.506,1653.53c.229-8.014-.4-28.3,11.5-29.936s15.715,8.709,14.082,35.379,6.8,42.182-11.431,53.34-40.276,19.594-42.726,19.323c0,0-6.659-9.179-4.082-9.8,5.715-1.361,24.955-14.679,29.4-22.858C2415.7,1688.969,2413.187,1664.916,2413.506,1653.53Z" transform="translate(-1935.496 -1347.698)" fill="#6b73a9"/>
    <path id="Path_181" data-name="Path 181" d="M2361.306,2171.424c1.1.708,4.806,8.3,4.4,8.919-.842,1.289-6.492,1.991-7.137,1.238-1.342-1.566-2.776-7.682-2.478-7.781S2360.414,2170.851,2361.306,2171.424Z" transform="translate(-1915.646 -1797.001)" fill="#272e6c"/>
    <path id="Path_182" data-name="Path 182" d="M2011.359,2067.082l.389-.047c1.94-.228,10.541-1.165,11.857.047,1.485,1.369,13.334,2.443,9.071,9.081-.7,1.092-3.863,4.263-4.718,2.177-.208-.511-.271-1.178-2.178-.359-1.26.539.454-4.083-4.264-3.44-1.888.258-1.36,1.717-7.621,0-1.508-.414-4.807-4-4.807-4Z" transform="translate(-1631.134 -1711.004)" fill="#c98f7c"/>
    <path id="Path_183" data-name="Path 183" d="M1442.191,1402.5c3.135,2.2-2.171,16.67,1.929,28.727.6,1.769-5.96-1.093-7.475,0-2.007,1.44,2.412,7.716-7.716,6.992,0,0-3.858,2.171-4.823,7.957l-22.426,7s8.439-20.77,10.128-25.335S1425.114,1390.5,1442.191,1402.5Z" transform="translate(-1133.046 -1164.382)" fill="#c98f7c"/>
    <path id="Path_184" data-name="Path 184" d="M1387.8,1316.563c-2.724-2.676,2.06-7.412-6.659-13.756-10.61-7.727-6.183-23.56-1.688-25.318,6.385-2.5,20.979-3.675,23.632-6.3s7.957-13.58,22.426-12.562,16.155,14.038,13.262,22-8.2,19.389-27.247,19.389c-2.8,0,3.135,10.628-7.474,8.341-2.551-.55,1.458-8.794-6.269-8.341-3.686.216-2.653,3.035-2.171,14.609C1395.7,1316.635,1389.241,1317.975,1387.8,1316.563Z" transform="translate(-1110.831 -1048.5)" fill="#231f20"/>
    <path id="Path_185" data-name="Path 185" d="M1235.392,1633.526s43.72-13.064,4.444,68.942c0,0-10.375,50.145-10.619,59.871-.092,3.792-46.446,8.346-50.437-5.079S1203.825,1638.6,1235.392,1633.526Z" transform="translate(-949.962 -1355.353)" fill="#6b705c"/>
    <path id="Path_186" data-name="Path 186" d="M1345.054,2064.457l-3.264,31.137s29.03-19.315,22.5-33.688C1360.006,2052.472,1348.319,2058.3,1345.054,2064.457Z" transform="translate(-1083.936 -1703.188)"/>
    <path id="Path_187" data-name="Path 187" d="M1434.52,1724.2l3.339,4.944,22.062-29.337s25.037-49.384-5.806-48.314c-8.709,4.336-17.417,6.149-19.595,13.043v-7.869s22.041-15.3,31.7-5.165S1451.575,1716.364,1434.52,1724.2Z" transform="translate(-1159.976 -1367.874)"/>
    <path id="Path_188" data-name="Path 188" d="M1488.45,1700.12c.025-6.84,6.355-26.916,17.962-20.684,14.7,7.892,30.6,40.55,58.239,57.367,4.871,2.965,19.323,9.607,20.684,9.607,2.733,0-2.16,9.673-4.9,9.771-7.62.272-32.113-7.111-50.346-18.74-17.963-11.456-28.078-15.847-30.752-20.218C1499.337,1717.222,1488.419,1708.283,1488.45,1700.12Z" transform="translate(-1204.199 -1392.655)" fill="#a0a78b"/>
    <path id="Path_189" data-name="Path 189" d="M1121.926,1571.534s-10.457,75.626-18.621,102.534c-21.515,25.455-47.729,6.091-49.529,4.05-8.164-9.254,3.4-55.975,9.8-83.277,6.168-26.306,1.271-62.592,45.649-48.986C1115.674,1547.836,1127.382,1549.769,1121.926,1571.534Z" transform="translate(-845.451 -1281.662)" fill="#272e6c"/>
    <path id="Path_190" data-name="Path 190" d="M1267.633,1601.3l-1-.436c.194-.443,19.154-44.045,11.458-54.155-1.772-.234-12.919-1.8-16.724-4.5l.63-.887c3.83,2.718,16.324,4.319,16.451,4.33l.214.027.137.168C1287.264,1556.148,1268.438,1599.459,1267.633,1601.3Z" transform="translate(-1017.99 -1280.368)" fill="#eaebf3"/>
    <path id="Path_191" data-name="Path 191" d="M1111.406,1579.205c.72,1.979,19.231,7.075,21.778,5.078,7.131-5.6,17.055-34.916,5.437-41.421C1123.9,1534.629,1109.765,1574.669,1111.406,1579.205Z" transform="translate(-894.91 -1280.721)" fill="#6b73a9"/>
    <path id="Path_192" data-name="Path 192" d="M1039.59,2011.289c.767-.153,7.379-3.719,7.471-4.179l2.262,6.042Z" transform="translate(-836.126 -1662.324)" fill="#6b73a9"/>
    <path id="Path_193" data-name="Path 193" d="M1023.033,2028.791c.866-.78,37.712-.36,40.084,2.853,2.066,2.8-.342,46.181-29.726,45.489C1014.325,2076.68,1018.967,2032.455,1023.033,2028.791Z" transform="translate(-819.569 -1679.826)" fill="#6b73a9"/>
    <line id="Line_14" data-name="Line 14" x2="8.187" y2="3.022" transform="translate(245.166 319.274)"/>
    <rect id="Rectangle_400" data-name="Rectangle 400" width="1.089" height="8.727" transform="translate(244.973 319.766) rotate(-69.74)" fill="#eaebf3"/>
    <path id="Path_194" data-name="Path 194" d="M1993.082,2053.691c-1.1.9-5.43,8.6-5.658,10.191-.1.687,4.917.277,5.658,0,2.581-.963,4.761-7.455,4.044-8.771C1996.6,2054.152,1993.929,2053,1993.082,2053.691Z" transform="translate(-1613.365 -1700.348)" fill="#6b705c"/>
    <path id="Path_195" data-name="Path 195" d="M2058.919,2044.163s-2.725,0-3.727-1.751-5.069-1.08-6.3-.651c-2.7.956-7.939,7.646-6.791,9.2.923,1.251,3.848-3.42,6.184-3.85s4.469.562,4.912,2.627c.281,1.311,4.226.951,7.19.628Z" transform="translate(-1658.07 -1690.335)" fill="#ffb299"/>
    <path id="Path_196" data-name="Path 196" d="M2117.018,2038.915c.436-.767,4.5-2.728,5.718-2.716,1.246.015,2.969,10.582,3.312,11.575.085.247-5.579.043-5.8-.9C2120.053,2046.062,2116.5,2039.823,2117.018,2038.915Z" transform="translate(-1719.594 -1686.177)" fill="#272e6c"/>
  </g>
</svg>
